<mxfile host="app.diagrams.net" modified="2021-04-19T14:37:44.789Z" agent="5.0 (Macintosh; Intel Mac OS X 10_14_3) AppleWebKit/537.36 (KHTML, like Gecko) Chrome/89.0.4389.128 Safari/537.36" etag="0AxwovVfDwLxwY5tL87_" version="14.5.10" type="github">
  <diagram id="Lof0R5rhfGAX3NdKyFyQ" name="Page-1">
    <mxGraphModel dx="1577" dy="812" grid="0" gridSize="10" guides="1" tooltips="1" connect="1" arrows="1" fold="1" page="1" pageScale="1" pageWidth="900" pageHeight="270" background="#EFF1F3" math="0" shadow="0">
      <root>
        <mxCell id="0" />
        <mxCell id="1" parent="0" />
        <mxCell id="lHOGtCii_1D8-ynuGwen-7" value="" style="rounded=1;whiteSpace=wrap;html=1;strokeColor=#000000;fillColor=none;dashed=1;strokeWidth=5;" parent="1" vertex="1">
          <mxGeometry x="354" y="179.39999999999998" width="428" height="321.6" as="geometry" />
        </mxCell>
        <mxCell id="wdfUIwA4EHPiVqjbUW1X-7" value="" style="rounded=1;whiteSpace=wrap;html=1;strokeColor=#000000;fillColor=none;dashed=1;strokeWidth=5;" parent="1" vertex="1">
          <mxGeometry x="87" y="179.39999999999998" width="216" height="321.6" as="geometry" />
        </mxCell>
        <mxCell id="lHOGtCii_1D8-ynuGwen-11" style="edgeStyle=orthogonalEdgeStyle;rounded=0;orthogonalLoop=1;jettySize=auto;html=1;exitX=1;exitY=0.5;exitDx=0;exitDy=0;fontSize=15;dashed=1;strokeWidth=5;dashPattern=1 1;" parent="1" source="wdfUIwA4EHPiVqjbUW1X-1" target="U5H95pQ-bFL1ZXfvbdUM-2" edge="1">
          <mxGeometry relative="1" as="geometry" />
        </mxCell>
        <mxCell id="wdfUIwA4EHPiVqjbUW1X-1" value="" style="rounded=1;whiteSpace=wrap;html=1;strokeColor=none;fillColor=#67AB9F;fontSize=15;" parent="1" vertex="1">
          <mxGeometry x="134.75" y="403" width="120" height="60" as="geometry" />
        </mxCell>
        <mxCell id="wdfUIwA4EHPiVqjbUW1X-2" value="http://baidu.com" style="text;html=1;strokeColor=none;fillColor=none;align=center;verticalAlign=middle;whiteSpace=wrap;rounded=0;fontSize=15;" parent="1" vertex="1">
          <mxGeometry x="152.75" y="423" width="81" height="20" as="geometry" />
        </mxCell>
        <mxCell id="lHOGtCii_1D8-ynuGwen-12" style="edgeStyle=orthogonalEdgeStyle;rounded=0;orthogonalLoop=1;jettySize=auto;html=1;exitX=1;exitY=0.5;exitDx=0;exitDy=0;entryX=0;entryY=0.5;entryDx=0;entryDy=0;fontSize=15;strokeWidth=5;dashed=1;dashPattern=1 1;" parent="1" source="wdfUIwA4EHPiVqjbUW1X-3" target="lHOGtCii_1D8-ynuGwen-1" edge="1">
          <mxGeometry relative="1" as="geometry" />
        </mxCell>
        <mxCell id="wdfUIwA4EHPiVqjbUW1X-3" value="http://golang.com" style="rounded=1;whiteSpace=wrap;html=1;strokeColor=none;fillColor=#FDD276;fontSize=15;" parent="1" vertex="1">
          <mxGeometry x="134.75" y="306" width="120" height="60" as="geometry" />
        </mxCell>
        <mxCell id="wdfUIwA4EHPiVqjbUW1X-5" value="" style="fontColor=#0066CC;verticalAlign=top;verticalLabelPosition=bottom;labelPosition=center;align=center;html=1;outlineConnect=0;gradientColor=none;gradientDirection=north;strokeWidth=2;shape=mxgraph.networks.server;fillColor=#4A919B;" parent="1" vertex="1">
          <mxGeometry x="608.5" y="675.44" width="82" height="91.11" as="geometry" />
        </mxCell>
        <mxCell id="wdfUIwA4EHPiVqjbUW1X-6" value="" style="fontColor=#0066CC;verticalAlign=top;verticalLabelPosition=bottom;labelPosition=center;align=center;html=1;outlineConnect=0;gradientColor=none;gradientDirection=north;strokeWidth=2;shape=mxgraph.networks.pc;fillColor=#4A919B;" parent="1" vertex="1">
          <mxGeometry x="157.5" y="690.77" width="100" height="70" as="geometry" />
        </mxCell>
        <mxCell id="wdfUIwA4EHPiVqjbUW1X-8" value="&lt;pre style=&quot;font-family: &amp;#34;source code pro&amp;#34; ; font-size: 30px&quot;&gt;&lt;pre style=&quot;font-family: &amp;#34;source code pro&amp;#34;&quot;&gt;idleConnCh&lt;font color=&quot;#535e80&quot; style=&quot;font-size: 30px&quot;&gt; &lt;/font&gt;&lt;span style=&quot;color: rgb(199 , 119 , 62)&quot;&gt;map&lt;/span&gt;&lt;font color=&quot;#535e80&quot; style=&quot;font-size: 30px&quot;&gt;[&lt;/font&gt;&lt;span style=&quot;color: rgb(111 , 175 , 189)&quot;&gt;connectMethodKey&lt;/span&gt;&lt;font color=&quot;#535e80&quot; style=&quot;font-size: 30px&quot;&gt;]&lt;/font&gt;&lt;span style=&quot;color: rgb(199 , 119 , 62)&quot;&gt;chan &lt;/span&gt;&lt;span style=&quot;color: rgb(249 , 38 , 114)&quot;&gt;*&lt;/span&gt;&lt;span style=&quot;color: rgb(111 , 175 , 189)&quot;&gt;persistConn&lt;/span&gt;&lt;/pre&gt;&lt;/pre&gt;" style="text;html=1;strokeColor=none;fillColor=none;align=center;verticalAlign=middle;whiteSpace=wrap;rounded=0;dashed=1;" parent="1" vertex="1">
          <mxGeometry x="153.75" y="25" width="639.25" height="69" as="geometry" />
        </mxCell>
        <mxCell id="wdfUIwA4EHPiVqjbUW1X-9" value="" style="shape=flexArrow;endArrow=classic;html=1;rounded=1;strokeColor=none;fillColor=#67AB9F;" parent="1" edge="1">
          <mxGeometry width="50" height="50" relative="1" as="geometry">
            <mxPoint x="385.75" y="700.06" as="sourcePoint" />
            <mxPoint x="467.75" y="700.06" as="targetPoint" />
          </mxGeometry>
        </mxCell>
        <mxCell id="wdfUIwA4EHPiVqjbUW1X-10" value="" style="shape=flexArrow;endArrow=classic;html=1;rounded=1;strokeColor=none;fillColor=#67AB9F;" parent="1" edge="1">
          <mxGeometry width="50" height="50" relative="1" as="geometry">
            <mxPoint x="464.75" y="750.0899999999998" as="sourcePoint" />
            <mxPoint x="380.75" y="750.06" as="targetPoint" />
          </mxGeometry>
        </mxCell>
        <mxCell id="wdfUIwA4EHPiVqjbUW1X-12" value="&lt;pre style=&quot;font-family: &amp;#34;source code pro&amp;#34;&quot;&gt;&lt;font style=&quot;font-size: 20px&quot;&gt;client&lt;/font&gt;&lt;/pre&gt;" style="text;html=1;strokeColor=none;fillColor=none;align=center;verticalAlign=middle;whiteSpace=wrap;rounded=0;dashed=1;" parent="1" vertex="1">
          <mxGeometry x="146.5" y="658" width="125.5" height="20" as="geometry" />
        </mxCell>
        <mxCell id="wdfUIwA4EHPiVqjbUW1X-13" value="&lt;pre style=&quot;font-family: &amp;#34;source code pro&amp;#34;&quot;&gt;&lt;span style=&quot;font-size: 20px&quot;&gt;http://baidu.com&lt;/span&gt;&lt;/pre&gt;" style="text;html=1;strokeColor=none;fillColor=none;align=center;verticalAlign=middle;whiteSpace=wrap;rounded=0;dashed=1;" parent="1" vertex="1">
          <mxGeometry x="586.75" y="645" width="125.5" height="20" as="geometry" />
        </mxCell>
        <mxCell id="lHOGtCii_1D8-ynuGwen-13" style="edgeStyle=orthogonalEdgeStyle;rounded=0;orthogonalLoop=1;jettySize=auto;html=1;exitX=1;exitY=0.5;exitDx=0;exitDy=0;entryX=0;entryY=0.5;entryDx=0;entryDy=0;fontSize=15;strokeWidth=5;dashed=1;dashPattern=1 1;" parent="1" source="U5H95pQ-bFL1ZXfvbdUM-1" target="lHOGtCii_1D8-ynuGwen-4" edge="1">
          <mxGeometry relative="1" as="geometry" />
        </mxCell>
        <mxCell id="U5H95pQ-bFL1ZXfvbdUM-1" value="http://xiaobai.com" style="rounded=1;whiteSpace=wrap;html=1;strokeColor=none;fillColor=#F19C99;fontSize=15;" parent="1" vertex="1">
          <mxGeometry x="137" y="217" width="120" height="60" as="geometry" />
        </mxCell>
        <mxCell id="U5H95pQ-bFL1ZXfvbdUM-2" value="长连接1" style="rounded=1;whiteSpace=wrap;html=1;fontSize=15;fillColor=#CCCCCC;dashed=1;" parent="1" vertex="1">
          <mxGeometry x="392.25" y="403" width="120" height="60" as="geometry" />
        </mxCell>
        <mxCell id="U5H95pQ-bFL1ZXfvbdUM-3" value="&lt;span style=&quot;font-size: 15px&quot;&gt;长连接2&lt;/span&gt;" style="rounded=1;whiteSpace=wrap;html=1;fillColor=#67AB9F;fontSize=15;" parent="1" vertex="1">
          <mxGeometry x="512.25" y="403" width="120" height="60" as="geometry" />
        </mxCell>
        <mxCell id="U5H95pQ-bFL1ZXfvbdUM-4" value="&lt;span style=&quot;font-size: 15px&quot;&gt;长连接3&lt;/span&gt;" style="rounded=1;whiteSpace=wrap;html=1;fillColor=#67AB9F;fontSize=15;" parent="1" vertex="1">
          <mxGeometry x="632.25" y="403" width="120" height="60" as="geometry" />
        </mxCell>
        <mxCell id="U5H95pQ-bFL1ZXfvbdUM-5" value="&lt;font style=&quot;font-size: 30px&quot;&gt;域名方法&lt;/font&gt;" style="text;html=1;strokeColor=none;fillColor=none;align=center;verticalAlign=middle;whiteSpace=wrap;rounded=0;" parent="1" vertex="1">
          <mxGeometry x="94" y="108" width="219.5" height="61" as="geometry" />
        </mxCell>
        <mxCell id="lHOGtCii_1D8-ynuGwen-1" value="长连接1" style="rounded=1;whiteSpace=wrap;html=1;fillColor=#FDD276;fontSize=15;" parent="1" vertex="1">
          <mxGeometry x="393" y="306" width="120" height="60" as="geometry" />
        </mxCell>
        <mxCell id="lHOGtCii_1D8-ynuGwen-2" value="&lt;span style=&quot;font-size: 15px&quot;&gt;长连接2&lt;/span&gt;" style="rounded=1;whiteSpace=wrap;html=1;fillColor=#FDD276;fontSize=15;" parent="1" vertex="1">
          <mxGeometry x="513" y="306" width="120" height="60" as="geometry" />
        </mxCell>
        <mxCell id="lHOGtCii_1D8-ynuGwen-3" value="&lt;span style=&quot;font-size: 15px&quot;&gt;长连接3&lt;/span&gt;" style="rounded=1;whiteSpace=wrap;html=1;fillColor=#FDD276;fontSize=15;" parent="1" vertex="1">
          <mxGeometry x="633" y="306" width="120" height="60" as="geometry" />
        </mxCell>
        <mxCell id="lHOGtCii_1D8-ynuGwen-4" value="长连接1" style="rounded=1;whiteSpace=wrap;html=1;fillColor=#F19C99;fontSize=15;" parent="1" vertex="1">
          <mxGeometry x="393" y="217" width="120" height="60" as="geometry" />
        </mxCell>
        <mxCell id="lHOGtCii_1D8-ynuGwen-5" value="&lt;span style=&quot;font-size: 15px&quot;&gt;长连接2&lt;/span&gt;" style="rounded=1;whiteSpace=wrap;html=1;fillColor=#F19C99;fontSize=15;" parent="1" vertex="1">
          <mxGeometry x="513" y="217" width="120" height="60" as="geometry" />
        </mxCell>
        <mxCell id="lHOGtCii_1D8-ynuGwen-6" value="&lt;span style=&quot;font-size: 15px&quot;&gt;长连接3&lt;/span&gt;" style="rounded=1;whiteSpace=wrap;html=1;fillColor=#F19C99;fontSize=15;" parent="1" vertex="1">
          <mxGeometry x="633" y="217" width="120" height="60" as="geometry" />
        </mxCell>
        <mxCell id="lHOGtCii_1D8-ynuGwen-8" value="&lt;font style=&quot;font-size: 30px&quot;&gt;空闲长连接&lt;/font&gt;" style="text;html=1;strokeColor=none;fillColor=none;align=center;verticalAlign=middle;whiteSpace=wrap;rounded=0;" parent="1" vertex="1">
          <mxGeometry x="452" y="108" width="219.5" height="61" as="geometry" />
        </mxCell>
        <mxCell id="lHOGtCii_1D8-ynuGwen-15" value="" style="curved=1;endArrow=classic;html=1;dashed=1;dashPattern=1 1;fontSize=15;strokeWidth=5;fillColor=#67AB9F;exitX=0.847;exitY=-0.121;exitDx=0;exitDy=0;exitPerimeter=0;" parent="1" source="wdfUIwA4EHPiVqjbUW1X-12" target="wdfUIwA4EHPiVqjbUW1X-13" edge="1">
          <mxGeometry width="50" height="50" relative="1" as="geometry">
            <mxPoint x="331" y="626" as="sourcePoint" />
            <mxPoint x="435" y="668" as="targetPoint" />
            <Array as="points">
              <mxPoint x="365" y="490" />
              <mxPoint x="450" y="457" />
              <mxPoint x="379" y="753" />
            </Array>
          </mxGeometry>
        </mxCell>
        <mxCell id="lHOGtCii_1D8-ynuGwen-17" value="&lt;font style=&quot;font-size: 18px&quot;&gt;1.获取空闲长连接&lt;/font&gt;" style="text;html=1;strokeColor=none;fillColor=none;align=center;verticalAlign=middle;whiteSpace=wrap;rounded=0;fontSize=15;" parent="1" vertex="1">
          <mxGeometry x="128" y="584" width="144" height="20" as="geometry" />
        </mxCell>
        <mxCell id="lHOGtCii_1D8-ynuGwen-18" value="&lt;font style=&quot;font-size: 18px&quot;&gt;2.发送数据&lt;/font&gt;" style="text;html=1;strokeColor=none;fillColor=none;align=center;verticalAlign=middle;whiteSpace=wrap;rounded=0;fontSize=15;" parent="1" vertex="1">
          <mxGeometry x="404" y="638" width="144" height="20" as="geometry" />
        </mxCell>
        <mxCell id="lHOGtCii_1D8-ynuGwen-19" value="" style="curved=1;endArrow=classic;html=1;dashed=1;dashPattern=1 1;fontSize=15;strokeWidth=5;fillColor=#67AB9F;entryX=1;entryY=1;entryDx=0;entryDy=0;" parent="1" target="U5H95pQ-bFL1ZXfvbdUM-4" edge="1">
          <mxGeometry width="50" height="50" relative="1" as="geometry">
            <mxPoint x="598" y="748" as="sourcePoint" />
            <mxPoint x="810" y="482" as="targetPoint" />
            <Array as="points">
              <mxPoint x="199" y="739" />
              <mxPoint x="277" y="813" />
              <mxPoint x="910" y="781" />
              <mxPoint x="768" y="516" />
            </Array>
          </mxGeometry>
        </mxCell>
        <mxCell id="lHOGtCii_1D8-ynuGwen-20" value="&lt;font style=&quot;font-size: 18px&quot;&gt;3.返回数据&lt;/font&gt;" style="text;html=1;strokeColor=none;fillColor=none;align=center;verticalAlign=middle;whiteSpace=wrap;rounded=0;fontSize=15;" parent="1" vertex="1">
          <mxGeometry x="486" y="721" width="144" height="20" as="geometry" />
        </mxCell>
        <mxCell id="lHOGtCii_1D8-ynuGwen-21" value="&lt;font style=&quot;font-size: 18px&quot;&gt;4.回收到&lt;br&gt;空闲连接池&lt;/font&gt;" style="text;html=1;strokeColor=none;fillColor=none;align=center;verticalAlign=middle;whiteSpace=wrap;rounded=0;fontSize=15;" parent="1" vertex="1">
          <mxGeometry x="767" y="484" width="125" height="20" as="geometry" />
        </mxCell>
      </root>
    </mxGraphModel>
  </diagram>
</mxfile>
